<?xml version="1.0" encoding="utf-8"?>
<!-- Generator: Adobe Illustrator 25.0.0, SVG Export Plug-In . SVG Version: 6.00 Build 0)  -->
<svg version="1.1" id="Calque_1" xmlns="http://www.w3.org/2000/svg" xmlns:xlink="http://www.w3.org/1999/xlink" x="0px" y="0px"
	 viewBox="0 0 279.9 69.2" style="enable-background:new 0 0 279.9 69.2;" xml:space="preserve">
<style type="text/css">
	.st0{fill-rule:evenodd;clip-rule:evenodd;fill:#41CEDA;}
	.st1{enable-background:new    ;}
	.st2{fill:#153570;}
</style>
<g>
	<path id="Fill-1" class="st0" d="M240.4,64.6c-5.5-0.5-9.6-2.1-13.6-4c-8.1-4-14.9-8.8-25.1-8.7c-16.8,0.1-24.5,10-24.5,10
		s9.5-8.3,24-5.9c8.5,1.4,13.6,5.2,20.4,8.5c5.1,2.6,10.9,4.7,18.5,4.2c16.8-1.1,24-11.5,24-11.5S254.9,66,240.4,64.6"/>
	<path id="Fill-4" class="st0" d="M273.4,39.4c0,0-0.1,0.1-0.4,0.3c0,0,0,0-0.1,0c0,0-0.1,0.1-0.2,0.1c-2.5,2.2-13.2,10.5-29.1,9
		c-6.9-0.7-12-2.8-17.1-5.1c-10.1-5.1-16.7-10.9-31.4-11.1c-18.6-0.2-29.8,10.8-33.1,14.5c-1,1-1.5,1.6-1.5,1.6s11.9-10.5,30.1-7.6
		c10.8,1.8,17.1,6.7,25.6,10.9c6.4,3.3,15.1,5.9,23.1,5.4c16.6-1.1,27.5-10.9,31.9-15.6C272.7,40.4,273.4,39.4,273.4,39.4"/>
	<g class="st1">
		<path class="st2" d="M12.7,6.3c0,3.4-2.5,5.9-5.9,5.9H1.9v7H0V0.3h6.7C10.1,0.3,12.7,2.9,12.7,6.3z M10.8,6.3c0-2.4-1.7-4.2-4-4.2
			H1.9v8.3h4.9C9.1,10.4,10.8,8.7,10.8,6.3z"/>
		<path class="st2" d="M15.3,1.6c0-0.7,0.6-1.3,1.3-1.3s1.3,0.6,1.3,1.3s-0.6,1.3-1.3,1.3S15.3,2.3,15.3,1.6z M15.7,5.7h1.8v13.5
			h-1.8V5.7z"/>
		<path class="st2" d="M30.5,15.7c0,2.3-2,3.9-4.9,3.9c-2.7,0-4.5-1.4-5.2-3.1l1.5-0.9c0.5,1.4,1.9,2.3,3.7,2.3
			c1.6,0,3.1-0.6,3.1-2.2c0-3.3-7.9-1.4-7.9-6.4c0-2.2,1.9-3.9,4.6-3.9c2.2,0,3.9,1.1,4.7,2.8L28.7,9c-0.6-1.4-1.9-1.9-3.2-1.9
			c-1.4,0-2.8,0.7-2.8,2.1C22.6,12.6,30.5,10.7,30.5,15.7z"/>
		<path class="st2" d="M32.3,12.5c0-4,3-7.1,7.1-7.1c2.7,0,4.9,1.4,5.9,3.5l-1.5,0.8c-0.7-1.6-2.4-2.6-4.5-2.6c-3,0-5.3,2.3-5.3,5.3
			s2.3,5.3,5.3,5.3c2.1,0,3.7-1.1,4.6-2.6l1.5,0.9c-1.1,2.1-3.4,3.5-6,3.5C35.3,19.5,32.3,16.5,32.3,12.5z"/>
		<path class="st2" d="M47.6,1.6c0-0.7,0.6-1.3,1.3-1.3s1.3,0.6,1.3,1.3s-0.6,1.3-1.3,1.3S47.6,2.3,47.6,1.6z M48,5.7h1.8v13.5H48
			V5.7z"/>
		<path class="st2" d="M65.1,10.9v8.3h-1.8v-8.3c0-2.4-1.3-3.8-3.7-3.8c-2.4,0-4.4,1.4-4.4,5v7.1h-1.8V5.7h1.8v2.1
			c1.1-1.7,2.6-2.4,4.5-2.4C63.1,5.4,65.1,7.6,65.1,10.9z"/>
		<path class="st2" d="M81.5,12.5c0,0.3,0,0.6-0.1,0.8H69.6c0.4,2.8,2.5,4.5,5.4,4.5c2.1,0,3.6-1,4.3-2.3l1.6,0.9
			c-1.1,1.8-3.2,3.1-5.9,3.1c-4.3,0-7.2-3-7.2-7.1c0-4,2.9-7.1,7-7.1C79,5.4,81.5,8.8,81.5,12.5z M69.6,11.6h10.1
			c-0.4-3-2.5-4.5-4.9-4.5C72,7.1,70,9,69.6,11.6z"/>
		<path class="st2" d="M104.5,0.3v18.9h-1.8v-2.6c-1.1,1.8-3.1,3-5.5,3c-3.8,0-7-3.1-7-7.1s3.2-7.1,7-7.1c2.4,0,4.3,1.2,5.5,3v-8
			H104.5z M102.7,12.5c0-3-2.3-5.3-5.3-5.3s-5.3,2.3-5.3,5.3s2.3,5.3,5.3,5.3S102.7,15.5,102.7,12.5z"/>
		<path class="st2" d="M121.2,12.5c0,0.3,0,0.6-0.1,0.8h-11.9c0.4,2.8,2.5,4.5,5.4,4.5c2.1,0,3.6-1,4.3-2.3l1.6,0.9
			c-1.1,1.8-3.2,3.1-5.9,3.1c-4.3,0-7.2-3-7.2-7.1c0-4,2.9-7.1,7-7.1C118.7,5.4,121.2,8.8,121.2,12.5z M109.3,11.6h10.1
			c-0.4-3-2.5-4.5-4.9-4.5C111.7,7.1,109.7,9,109.3,11.6z"/>
		<path class="st2" d="M132.8,15.7c0,2.3-2,3.9-4.9,3.9c-2.7,0-4.5-1.4-5.2-3.1l1.5-0.9c0.5,1.4,1.9,2.3,3.7,2.3
			c1.6,0,3.1-0.6,3.1-2.2c0-3.3-7.9-1.4-7.9-6.4c0-2.2,1.9-3.9,4.6-3.9c2.2,0,3.9,1.1,4.7,2.8L131,9c-0.6-1.4-1.9-1.9-3.2-1.9
			c-1.4,0-2.8,0.7-2.8,2.1C124.9,12.6,132.8,10.7,132.8,15.7z"/>
		<path class="st2" d="M141.7,9.8c0-5.4,4.1-9.8,9.9-9.8c3.5,0,6.6,1.8,8.2,4.6l-1.7,1c-1.2-2.3-3.7-3.8-6.5-3.8c-4.8,0-8,3.5-8,7.9
			c0,4.4,3.2,7.9,8,7.9c2.8,0,5.3-1.5,6.5-3.8l1.7,0.9c-1.5,2.8-4.6,4.7-8.2,4.7C145.8,19.5,141.7,15.2,141.7,9.8z"/>
		<path class="st2" d="M174.3,10.9v8.3h-1.8v-8.3c0-2.4-1.3-3.8-3.7-3.8c-2.4,0-4.4,1.4-4.4,5v7.1h-1.8V0.3h1.8v7.5
			c1.1-1.7,2.6-2.4,4.5-2.4C172.3,5.4,174.3,7.6,174.3,10.9z"/>
		<path class="st2" d="M191.1,5.7v13.5h-1.8v-2.6c-1.1,1.8-3,3-5.5,3c-3.8,0-7-3.1-7-7.1s3.2-7.1,7-7.1c2.4,0,4.3,1.2,5.5,3V5.7
			H191.1z M189.3,12.5c0-3-2.3-5.3-5.3-5.3s-5.3,2.3-5.3,5.3s2.3,5.3,5.3,5.3S189.3,15.5,189.3,12.5z"/>
		<path class="st2" d="M206.5,5.7L201,19.2h-2.2l-5.5-13.5h1.9l4.7,11.6l4.7-11.6H206.5z"/>
		<path class="st2" d="M221.5,5.7v13.5h-1.8v-2.6c-1.1,1.8-3.1,3-5.5,3c-3.8,0-7-3.1-7-7.1s3.2-7.1,7-7.1c2.4,0,4.3,1.2,5.5,3V5.7
			H221.5z M219.7,12.5c0-3-2.3-5.3-5.3-5.3s-5.3,2.3-5.3,5.3s2.3,5.3,5.3,5.3S219.7,15.5,219.7,12.5z"/>
		<path class="st2" d="M236.9,10.9v8.3h-1.8v-8.3c0-2.4-1.3-3.8-3.7-3.8c-2.4,0-4.4,1.4-4.4,5v7.1h-1.8V5.7h1.8v2.1
			c1.1-1.7,2.6-2.4,4.5-2.4C234.9,5.4,236.9,7.6,236.9,10.9z"/>
		<path class="st2" d="M252,10.9v8.3h-1.8v-8.3c0-2.4-1.3-3.8-3.7-3.8c-2.4,0-4.4,1.4-4.4,5v7.1h-1.8V5.7h1.8v2.1
			c1.1-1.7,2.6-2.4,4.5-2.4C250,5.4,252,7.6,252,10.9z"/>
		<path class="st2" d="M268.3,12.5c0,0.3,0,0.6-0.1,0.8h-11.8c0.4,2.8,2.5,4.5,5.4,4.5c2.1,0,3.6-1,4.3-2.3l1.6,0.9
			c-1.1,1.8-3.2,3.1-5.9,3.1c-4.3,0-7.2-3-7.2-7.1c0-4,2.9-7.1,7-7.1C265.8,5.4,268.3,8.8,268.3,12.5z M256.4,11.6h10.1
			c-0.4-3-2.5-4.5-4.9-4.5C258.8,7.1,256.8,9,256.4,11.6z"/>
		<path class="st2" d="M279.9,15.7c0,2.3-2,3.9-4.9,3.9c-2.7,0-4.5-1.4-5.2-3.1l1.5-0.9c0.5,1.4,1.9,2.3,3.7,2.3
			c1.6,0,3.1-0.6,3.1-2.2c0-3.3-7.9-1.4-7.9-6.4c0-2.2,1.9-3.9,4.6-3.9c2.2,0,3.9,1.1,4.7,2.8L278.1,9c-0.6-1.4-1.9-1.9-3.2-1.9
			c-1.4,0-2.8,0.7-2.8,2.1C272,12.6,279.9,10.7,279.9,15.7z"/>
	</g>
</g>
</svg>
