<svg id="Calque_2" data-name="Calque 2" xmlns="http://www.w3.org/2000/svg" viewBox="0 0 248.99 61.39"><defs><style>.cls-1{fill:#4a4a49;}.cls-2{fill:#4e875f;}.cls-3{fill:#e73331;}.cls-4{fill:#fdc73d;}.cls-5{fill:#395da8;}.cls-6{fill:#dc7f34;}.cls-7{fill:#2baed4;}.cls-8{fill:#cc5d62;}</style></defs><path class="cls-1" d="M147,48.5h-6.78L114.28,17.34V48.5h-6.85V7.67h6.79l26,31.16V7.67H147Z"/><path class="cls-1" d="M249,48.5H213.7V7.67h6.85V42.78H249Z"/><circle class="cls-2" cx="180.94" cy="8.79" r="8.79"/><circle class="cls-3" cx="165.05" cy="16.44" r="8.79"/><circle class="cls-4" cx="161.12" cy="33.63" r="8.79"/><circle class="cls-5" cx="172.11" cy="47.42" r="8.79"/><circle class="cls-6" cx="189.74" cy="47.43" r="8.79"/><circle class="cls-7" cx="200.75" cy="33.65" r="8.79"/><circle class="cls-8" cx="196.84" cy="16.45" r="8.79"/><path class="cls-1" d="M101.78,48.5H66.49V7.67h35.29v5.66H73.34V25H90.81v5.19H73.34V42.78h28.44Z"/><path class="cls-1" d="M51.62,7.67V42.92c0,9.14-3.72,13-12.63,13-.67,0-1.33,0-2-.1v5.47c.65,0,1.31.06,2,.06,13.46,0,19.48-6.2,19.48-18.47V7.67Z"/><path class="cls-1" d="M44.26,48.5h-7L32.1,36.76H12.16L7,48.5H0L17.29,7.67H27ZM30.1,31.63,22.78,14.75h-1.3L14.16,31.63Z"/></svg>